<svg id="Logo" xmlns="http://www.w3.org/2000/svg" width="224" height="57" viewBox="0 0 224 57">
        <defs>
        </defs>
        <path id="webkul-design" class="webkul-design-logo" d="M220.786,36.991V29.982a1.881,1.881,0,0,0-2.137-2.16,3.3,3.3,0,0,0-2.64,1.368v7.8h-3.048V25.4h3.048V26.91a5.309,5.309,0,0,1,4.057-1.8c2.544,0,3.768,1.44,3.768,3.7v8.185h-3.048Zm-17.112,4.7a7.024,7.024,0,0,1-4.993-1.728l1.368-2.208a4.608,4.608,0,0,0,3.625,1.44c1.464,0,3.192-.648,3.192-2.928V35.095a4.514,4.514,0,0,1-3.576,1.824c-2.905,0-5.113-2.04-5.113-5.9,0-3.792,2.184-5.9,5.113-5.9a4.464,4.464,0,0,1,3.576,1.776V25.4h3.072V36.2C209.938,40.615,206.53,41.7,203.674,41.7Zm3.192-12.553a3.3,3.3,0,0,0-2.616-1.32,2.875,2.875,0,0,0-2.929,3.192,2.875,2.875,0,0,0,2.929,3.192,3.375,3.375,0,0,0,2.616-1.32V29.142Zm-12.5-5.232a1.824,1.824,0,1,1,1.824-1.824A1.839,1.839,0,0,1,194.362,23.91Zm-8.424,5.857c1.992,0.384,4.656.912,4.656,3.792,0,2.112-1.8,3.72-5.016,3.72a7.8,7.8,0,0,1-5.184-1.8l1.32-2.136a6.635,6.635,0,0,0,4.008,1.584c1.32,0,1.944-.456,1.944-1.176,0-.816-1.008-1.1-2.328-1.368-1.992-.384-4.56-0.864-4.56-3.624,0-1.944,1.7-3.648,4.752-3.648a7.4,7.4,0,0,1,4.68,1.584l-1.224,2.088a4.89,4.89,0,0,0-3.432-1.344c-1.1,0-1.824.408-1.824,1.08C183.73,29.238,184.642,29.5,185.938,29.766Zm-12.024,5.088a4.745,4.745,0,0,0,3.1-1.152l1.344,1.968a7.228,7.228,0,0,1-4.777,1.608,5.871,5.871,0,0,1-6.192-6.1,5.9,5.9,0,0,1,6-6.073c3.457,0,5.809,2.592,5.809,6.385v0.672h-8.617A3.124,3.124,0,0,0,173.914,34.855Zm2.328-4.752a2.685,2.685,0,0,0-2.856-2.568A2.786,2.786,0,0,0,170.53,30.1h5.712Zm-18.959,6.888H150.97V20.981h6.313c5.016,0,8.5,3.192,8.5,8.017S162.3,36.991,157.283,36.991Zm0-13.009h-2.905V33.991h2.905A4.792,4.792,0,0,0,162.3,29,4.685,4.685,0,0,0,157.283,23.982Zm-18.6-3h3.049V36.991h-3.049V20.981Zm-6.071,14.545a5.425,5.425,0,0,1-4.08,1.752c-2.544,0-3.745-1.392-3.745-3.648V25.4h3.049V32.43a1.864,1.864,0,0,0,2.136,2.136,3.412,3.412,0,0,0,2.64-1.32V25.4h3.048V36.991h-3.048V35.527Zm-13.152,1.464-3.072-4.464L115,34.015v2.976h-3.048V20.981H115v9.577l4.392-5.16h3.745l-4.585,5.256,4.729,6.336h-3.817Zm-14.952.288a4.5,4.5,0,0,1-3.576-1.776v1.488H97.883V20.981h3.048v5.9a4.464,4.464,0,0,1,3.576-1.776c2.953,0,5.137,2.3,5.137,6.1C109.644,35.071,107.436,37.279,104.507,37.279Zm-0.96-9.457a3.363,3.363,0,0,0-2.616,1.344v4.1a3.392,3.392,0,0,0,2.616,1.3c1.776,0,2.953-1.344,2.953-3.36S105.323,27.822,103.547,27.822ZM90.4,34.855a4.741,4.741,0,0,0,3.1-1.152l1.344,1.968a7.226,7.226,0,0,1-4.776,1.608,5.871,5.871,0,0,1-6.192-6.1,5.9,5.9,0,0,1,6-6.073c3.456,0,5.808,2.592,5.808,6.385v0.672H87.059A3.124,3.124,0,0,0,90.4,34.855ZM92.724,30.1a2.685,2.685,0,0,0-2.856-2.568A2.786,2.786,0,0,0,87.011,30.1h5.713ZM75.852,36.991L73.044,26,70.259,36.991H66.635L62.051,20.981h3.816L68.675,32.55l3.048-11.569h2.664L77.412,32.55,80.2,20.981h3.84l-4.56,16.009H75.852ZM55.97,28.5C55.97,44.24,43.441,57,27.985,57S0,44.24,0,28.5,12.529,0,27.985,0a27.69,27.69,0,0,1,20.71,9.332l2-8.506,4.867,0.826-5.383,9.5c0.1,0.136.206,0.27,0.306,0.407L59,6.609v4.544l-7.547,1.83A28.735,28.735,0,0,1,55.97,28.5ZM28,3A25.254,25.254,0,0,0,3,28.5,25.254,25.254,0,0,0,28,54,25.254,25.254,0,0,0,53,28.5,25.254,25.254,0,0,0,28,3ZM39.036,42l-11-11.416L17.036,42,4.982,29.491l12.054-12.51,11,11.416,11-11.416L51.09,29.491ZM17,21.009L9.009,29.5,17,38,25,29.5Zm22,0-7.994,8.5L39,38,47,29.5ZM195.9,36.991h-3.049V25.4H195.9V36.991Z" style="fill: rgb(205, 73, 170);"></path>
      </svg>